HIERARCHY
ROOT Model
{
	OFFSET 0 0 0
	CHANNELS 6 Xposition Yposition Zposition Zrotation Xrotation Yrotation
	JOINT Model1
	{
		OFFSET 0 -2.25479 2.99383
		CHANNELS 3 Zrotation Xrotation Yrotation
		JOINT Model2
		{
			OFFSET 12.111 0 0
			CHANNELS 3 Zrotation Xrotation Yrotation
			JOINT Model3
			{
				OFFSET 11.5502 0 0
				CHANNELS 3 Zrotation Xrotation Yrotation
				JOINT Model4
				{
					OFFSET 11.781 0 0
					CHANNELS 3 Zrotation Xrotation Yrotation
					JOINT Model5
					{
						OFFSET 20.0601 0 0
						CHANNELS 3 Zrotation Xrotation Yrotation
						JOINT Model6
						{
							OFFSET 11.1962 0 0
							CHANNELS 3 Zrotation Xrotation Yrotation
							End Site
							{
								OFFSET 0 0 0
							}
						}
					}
					JOINT Model7
					{
						OFFSET 10.8223 0.417538 3.51114
						CHANNELS 3 Zrotation Xrotation Yrotation
						JOINT Model8
						{
							OFFSET -6.07943 0 0
							CHANNELS 3 Zrotation Xrotation Yrotation
							JOINT Model9
							{
								OFFSET -0.277412 10.39 -0.0512428
								CHANNELS 3 Zrotation Xrotation Yrotation
								JOINT Model10
								{
									OFFSET -3.4391 -0.282043 1.86678
									CHANNELS 3 Zrotation Xrotation Yrotation
									JOINT Model11
									{
										OFFSET 13.0269 0 0
										CHANNELS 3 Zrotation Xrotation Yrotation
										JOINT Model12
										{
											OFFSET 10.8866 0 0
											CHANNELS 3 Zrotation Xrotation Yrotation
											JOINT Model13
											{
												OFFSET 16.7317 0 0
												CHANNELS 3 Zrotation Xrotation Yrotation
												JOINT Model14
												{
													OFFSET 11.8292 0 0
													CHANNELS 3 Zrotation Xrotation Yrotation
													JOINT Model15
													{
														OFFSET 4.82751 -3.73566 -0.836517
														CHANNELS 3 Zrotation Xrotation Yrotation
														JOINT Model16
														{
															OFFSET 3.75311 -0.0582924 -0.0186462
															CHANNELS 3 Zrotation Xrotation Yrotation
															JOINT Model17
															{
																OFFSET 2.88689 0.0192337 0.014801
																CHANNELS 3 Zrotation Xrotation Yrotation
																End Site
																{
																	OFFSET 0 0 0
																}
															}
														}
													}
													JOINT Model18
													{
														OFFSET 9.72198 -3.06458 0.238766
														CHANNELS 3 Zrotation Xrotation Yrotation
														JOINT Model19
														{
															OFFSET 4.61131 0 0
															CHANNELS 3 Zrotation Xrotation Yrotation
															JOINT Model20
															{
																OFFSET 2.8969 -1.14441e-005 0
																CHANNELS 3 Zrotation Xrotation Yrotation
																End Site
																{
																	OFFSET 0 0 0
																}
															}
														}
													}
													JOINT Model21
													{
														OFFSET 9.5443 -0.745064 0.588936
														CHANNELS 3 Zrotation Xrotation Yrotation
														JOINT Model22
														{
															OFFSET 5.33978 0 0
															CHANNELS 3 Zrotation Xrotation Yrotation
															JOINT Model23
															{
																OFFSET 3.03619 1.14441e-005 0
																CHANNELS 3 Zrotation Xrotation Yrotation
																End Site
																{
																	OFFSET 0 0 0
																}
															}
														}
													}
													JOINT Model24
													{
														OFFSET 9.47759 1.51286 0.485119
														CHANNELS 3 Zrotation Xrotation Yrotation
														JOINT Model25
														{
															OFFSET 4.96136 1.14441e-005 0
															CHANNELS 3 Zrotation Xrotation Yrotation
															JOINT Model26
															{
																OFFSET 2.51965 0 0
																CHANNELS 3 Zrotation Xrotation Yrotation
																End Site
																{
																	OFFSET 0 0 0
																}
															}
														}
													}
													JOINT Model27
													{
														OFFSET 9.34248 3.34117 -0.239281
														CHANNELS 3 Zrotation Xrotation Yrotation
														JOINT Model28
														{
															OFFSET 3.28259 2.67029e-005 0
															CHANNELS 3 Zrotation Xrotation Yrotation
															JOINT Model29
															{
																OFFSET 2.1292 0 0
																CHANNELS 3 Zrotation Xrotation Yrotation
																End Site
																{
																	OFFSET 0 0 0
																}
															}
														}
													}
												}
											}
										}
									}
								}
							}
						}
					}
					JOINT Model30
					{
						OFFSET 10.8223 0.417904 -3.51107
						CHANNELS 3 Zrotation Xrotation Yrotation
						JOINT Model31
						{
							OFFSET 6.07943 0 0
							CHANNELS 3 Zrotation Xrotation Yrotation
							JOINT Model32
							{
								OFFSET 0.277412 -10.39 0.0512428
								CHANNELS 3 Zrotation Xrotation Yrotation
								JOINT Model33
								{
									OFFSET 3.4391 0.282043 -1.86678
									CHANNELS 3 Zrotation Xrotation Yrotation
									JOINT Model34
									{
										OFFSET -13.0269 0 0
										CHANNELS 3 Zrotation Xrotation Yrotation
										JOINT Model35
										{
											OFFSET -10.8866 0 0
											CHANNELS 3 Zrotation Xrotation Yrotation
											JOINT Model36
											{
												OFFSET -16.7317 0 0
												CHANNELS 3 Zrotation Xrotation Yrotation
												JOINT Model37
												{
													OFFSET -11.8292 0 0
													CHANNELS 3 Zrotation Xrotation Yrotation
													JOINT Model38
													{
														OFFSET -4.82751 3.73566 0.836517
														CHANNELS 3 Zrotation Xrotation Yrotation
														JOINT Model39
														{
															OFFSET -3.75311 0.0582848 0.0186424
															CHANNELS 3 Zrotation Xrotation Yrotation
															JOINT Model40
															{
																OFFSET -2.88688 -0.0192375 -0.014801
																CHANNELS 3 Zrotation Xrotation Yrotation
																End Site
																{
																	OFFSET 0 0 0
																}
															}
														}
													}
													JOINT Model41
													{
														OFFSET -9.72197 3.06459 -0.23877
														CHANNELS 3 Zrotation Xrotation Yrotation
														JOINT Model42
														{
															OFFSET -4.6113 0 0
															CHANNELS 3 Zrotation Xrotation Yrotation
															JOINT Model43
															{
																OFFSET -2.8969 0 0
																CHANNELS 3 Zrotation Xrotation Yrotation
																End Site
																{
																	OFFSET 0 0 0
																}
															}
														}
													}
													JOINT Model44
													{
														OFFSET -9.5443 0.745064 -0.58894
														CHANNELS 3 Zrotation Xrotation Yrotation
														JOINT Model45
														{
															OFFSET -5.33978 0 0
															CHANNELS 3 Zrotation Xrotation Yrotation
															JOINT Model46
															{
																OFFSET -3.03619 -1.52588e-005 0
																CHANNELS 3 Zrotation Xrotation Yrotation
																End Site
																{
																	OFFSET 0 0 0
																}
															}
														}
													}
													JOINT Model47
													{
														OFFSET -9.47759 -1.51286 -0.485123
														CHANNELS 3 Zrotation Xrotation Yrotation
														JOINT Model48
														{
															OFFSET -4.96136 -1.52588e-005 0
															CHANNELS 3 Zrotation Xrotation Yrotation
															JOINT Model49
															{
																OFFSET -2.51966 0 0
																CHANNELS 3 Zrotation Xrotation Yrotation
																End Site
																{
																	OFFSET 0 0 0
																}
															}
														}
													}
													JOINT Model50
													{
														OFFSET -9.34246 -3.34118 0.239277
														CHANNELS 3 Zrotation Xrotation Yrotation
														JOINT Model51
														{
															OFFSET -3.2826 -1.90735e-005 0
															CHANNELS 3 Zrotation Xrotation Yrotation
															JOINT Model52
															{
																OFFSET -2.1292 0 0
																CHANNELS 3 Zrotation Xrotation Yrotation
																End Site
																{
																	OFFSET 0 0 0
																}
															}
														}
													}
												}
											}
										}
									}
								}
							}
						}
					}
				}
			}
		}
	}
	JOINT Model53
	{
		OFFSET 4.38026 -2.14632 -1.11516
		CHANNELS 3 Zrotation Xrotation Yrotation
		JOINT Model54
		{
			OFFSET 0 0 4.94999
			CHANNELS 3 Zrotation Xrotation Yrotation
			JOINT Model55
			{
				OFFSET 18.5642 0 0
				CHANNELS 3 Zrotation Xrotation Yrotation
				JOINT Model56
				{
					OFFSET 21.2884 0 1.14441e-005
					CHANNELS 3 Zrotation Xrotation Yrotation
					JOINT Model57
					{
						OFFSET 30.261 0 0
						CHANNELS 3 Zrotation Xrotation Yrotation
						JOINT Model58
						{
							OFFSET 11.7259 0 0
							CHANNELS 3 Zrotation Xrotation Yrotation
							JOINT Model59
							{
								OFFSET 10.682 0 0
								CHANNELS 3 Zrotation Xrotation Yrotation
								End Site
								{
									OFFSET 0 0 0
								}
							}
						}
					}
				}
			}
		}
	}
	JOINT Model60
	{
		OFFSET -4.38026 -2.14632 -1.11516
		CHANNELS 3 Zrotation Xrotation Yrotation
		JOINT Model61
		{
			OFFSET 0 0 -4.94999
			CHANNELS 3 Zrotation Xrotation Yrotation
			JOINT Model62
			{
				OFFSET -18.5642 0 0
				CHANNELS 3 Zrotation Xrotation Yrotation
				JOINT Model63
				{
					OFFSET -21.2884 0 -1.14441e-005
					CHANNELS 3 Zrotation Xrotation Yrotation
					JOINT Model64
					{
						OFFSET -30.261 0 0
						CHANNELS 3 Zrotation Xrotation Yrotation
						JOINT Model65
						{
							OFFSET -11.7259 0 0
							CHANNELS 3 Zrotation Xrotation Yrotation
							JOINT Model66
							{
								OFFSET -10.682 0 0
								CHANNELS 3 Zrotation Xrotation Yrotation
								End Site
								{
									OFFSET 0 0 0
								}
							}
						}
					}
				}
			}
		}
	}
}
MOTION
Frames: 4
Frame Time: 0.033333
44.4628 127.435 36.7926 -96.351 -21.1773 -98.1141 -180 -6.53164e-013 -90 12.9226 2.60195 -1.27886 25.9353 4.85027 -3.11251 25.9353 4.85067 -3.1127 -33.6279 8.11985 -0.389523 4.95672 7.93798 -20.0226 120.092 75.5343 58.4939 9.17349 -22.4877 -6.56856 -167.277 84.4999 48.8109 165.579 -13.4972 43.488 8.31133e-006 -9.41184 2.41665e-005 -143.455 13.6094 0.373933 1.11953e-006 21.2124 1.70055e-006 -10.4998 -1.14118 12.3717 -72.0648 39.0385 39.3397 33.3638 2.10362 14.835 0.588947 0.308273 6.35287 -99.6409 81.413 100.35 -0.0181409 2.77866e-005 -0.117315 -0.124139 0.00241113 -0.799296 -79.8382 79.5773 80.5374 -0.000225772 -0.000220915 2.21964e-005 -0.00095622 0.000122905 -2.73181e-005 -66.7416 80.4058 67.2171 -0.000437128 1.59534e-005 -2.73189e-005 -0.000136597 -0.000109281 -5.46392e-005 -6.42159 81.2158 8.01779 -0.000218562 1.69097e-005 0.000212141 0.000901591 -0.0001848 -0.000218565 -59.9282 75.5373 58.5147 15.8224 17.3478 0.561588 -167.277 84.4999 48.8109 113.03 -7.62936 11.2546 8.30195e-007 9.98467 3.22121e-005 -131.467 2.0122 0.456775 -2.18547e-006 3.49211 8.13609e-007 -0.0525891 0.00247543 -5.38853 -72.0648 39.0385 39.3397 33.3638 2.10361 14.835 0.588946 0.308273 6.35287 -99.6409 81.413 100.35 -0.0181409 3.00592e-005 -0.117315 -0.124139 0.00241111 -0.799296 -79.8382 79.5773 80.5374 -0.000260642 -0.000218585 2.35728e-005 -0.000956221 0.000122971 -2.73175e-005 -66.7416 80.4058 67.2171 -0.000437128 1.48624e-005 -2.73179e-005 -0.000136599 -0.000109309 -5.46377e-005 -6.42159 81.2158 8.01779 -0.000218561 1.95591e-005 0.000212302 0.00090159 -0.000191272 -0.000218559 0.00081454 0.56661 89.91 -20.8852 -10.4694 -29.8395 -1.21587e-006 0.875024 -4.32135e-008 38.677 3.65907 -1.23339 2.25945e-007 5.41715 1.99268e-007 -40.341 0.122729 0.0903692 -42.6804 -20.172 -1.41618 -180 -0.566576 -90.09 -34.6891 9.98416 -10.5813 3.25764e-006 18.6675 -2.12095e-007 50.469 -18.7131 -5.32061 1.44699e-006 -28.2781 1.15578e-006 -5.79055 -8.11145 16.1953 -65.6689 -6.85413 -5.54572 
42.7916 126.933 36.8256 -99.6276 -28.2714 -101.506 -180 -6.53164e-013 -90 12.5779 2.38363 -1.58051 25.2446 4.36396 -3.64693 25.2446 4.36435 -3.64712 -30.9192 7.00821 -1.07407 5.9251 6.36217 -17.0784 120.092 75.5343 58.4939 7.63564 -24.6292 -7.21549 -167.277 84.4999 48.8109 153.192 -17.6382 40.527 8.41449e-006 -9.65294 2.41836e-005 -145.963 13.4271 0.351249 1.12601e-006 21.0084 1.69821e-006 -7.33768 -0.556215 8.65801 -72.0648 39.0385 39.3397 33.3638 2.10362 14.835 0.588947 0.308273 6.35287 -99.6409 81.413 100.35 -0.0181409 2.77866e-005 -0.117315 -0.124139 0.00241113 -0.799296 -79.8382 79.5773 80.5374 -0.000225772 -0.000220915 2.21964e-005 -0.00095622 0.000122905 -2.73181e-005 -66.7416 80.4058 67.2171 -0.000437128 1.59534e-005 -2.73189e-005 -0.000136597 -0.000109281 -5.46392e-005 -6.42159 81.2158 8.01779 -0.000218562 1.69097e-005 0.000212141 0.000901591 -0.0001848 -0.000218565 -59.9282 75.5373 58.5147 10.7007 20.0374 2.71807 -167.277 84.4999 48.8109 118.656 -8.79698 11.8618 1.83721e-006 8.21158 3.20528e-005 -133.317 1.77173 0.443433 -2.18105e-006 3.18089 8.13351e-007 -0.0525891 0.00247543 -5.38853 -72.0648 39.0385 39.3397 33.3638 2.10361 14.835 0.588946 0.308273 6.35287 -99.6409 81.413 100.35 -0.0181409 3.00592e-005 -0.117315 -0.124139 0.00241111 -0.799296 -79.8382 79.5773 80.5374 -0.000260642 -0.000218585 2.35728e-005 -0.000956221 0.000122971 -2.73175e-005 -66.7416 80.4058 67.2171 -0.000437128 1.48624e-005 -2.73179e-005 -0.000136599 -0.000109309 -5.46377e-005 -6.42159 81.2158 8.01779 -0.000218561 1.95591e-005 0.000212302 0.00090159 -0.000191272 -0.000218559 0.00081454 0.56661 89.91 -21.0742 -8.13078 -27.2082 -1.2144e-006 2.82322 -4.3261e-008 39.1913 4.37083 -0.964656 2.22212e-007 6.4835 1.99655e-007 -40.6489 1.04182 -0.752288 -41.9748 -18.0762 -1.05971 -180 -0.566576 -90.09 -28.1726 12.617 -10.8932 3.27772e-006 23.642 -2.19347e-007 57.5551 -22.8609 -0.652676 1.59627e-006 -34.396 1.23353e-006 -15.0292 -9.46832 15.0775 -54.8817 -13.2866 -4.86384 
40.9567 126.717 36.8983 -102.239 -37.3641 -106.619 -180 -6.53164e-013 -90 11.9108 1.8445 -2.50261 23.9042 3.13032 -5.3353 23.9042 3.13072 -5.33547 -28.2869 5.28607 -0.604433 7.14533 4.78605 -12.7401 120.092 75.5343 58.4939 7.12146 -25.3722 -7.45605 -167.277 84.4999 48.8109 140.57 -20.4231 35.6809 8.15234e-006 -9.03958 2.4141e-005 -146.089 13.7861 0.350657 1.10874e-006 21.5503 1.70448e-006 -1.92671 -0.063567 3.77892 -72.0648 39.0385 39.3397 33.3638 2.10362 14.835 0.588947 0.308273 6.35287 -99.6409 81.413 100.35 -0.0181409 2.77866e-005 -0.117315 -0.124139 0.00241113 -0.799296 -79.8382 79.5773 80.5374 -0.000225772 -0.000220915 2.21964e-005 -0.00095622 0.000122905 -2.73181e-005 -66.7416 80.4058 67.2171 -0.000437128 1.59534e-005 -2.73189e-005 -0.000136597 -0.000109281 -5.46392e-005 -6.42159 81.2158 8.01779 -0.000218562 1.69097e-005 0.000212141 0.000901591 -0.0001848 -0.000218565 -59.9282 75.5373 58.5147 5.46596 22.2152 5.05364 -167.277 84.4999 48.8109 124.302 -9.7678 12.9849 2.62954e-006 6.80509 3.19493e-005 -135.581 1.58111 0.426517 -2.17785e-006 2.95606 8.1318e-007 -0.0525891 0.00247543 -5.38853 -72.0648 39.0385 39.3397 33.3638 2.10361 14.835 0.588946 0.308273 6.35287 -99.6409 81.413 100.35 -0.0181409 3.00592e-005 -0.117315 -0.124139 0.00241111 -0.799296 -79.8382 79.5773 80.5374 -0.000260642 -0.000218585 2.35728e-005 -0.000956221 0.000122971 -2.73175e-005 -66.7416 80.4058 67.2171 -0.000437128 1.48624e-005 -2.73179e-005 -0.000136599 -0.000109309 -5.46377e-005 -6.42159 81.2158 8.01779 -0.000218561 1.95591e-005 0.000212302 0.00090159 -0.000191272 -0.000218559 0.00081454 0.56661 89.91 -23.2603 -5.31527 -22.5853 -1.21373e-006 3.71236 -4.32994e-008 39.824 5.40361 -0.742862 2.16766e-007 8.03128 2.00343e-007 -40.2299 1.86444 -1.48625 -40.2999 -13.4038 -0.405486 -180 -0.566576 -90.09 -23.7354 10.2846 -15.358 3.27527e-006 23.052 -2.18375e-007 61.297 -24.7256 -0.00799531 1.67189e-006 -37.1952 1.27777e-006 -19.984 -9.16503 13.1833 -48.6237 -19.1241 -3.74115 
39.235 126.68 37.1801 -104.5 -45.1925 -110.855 -180 -6.53164e-013 -90 11.2562 1.28491 -3.53865 22.5746 1.85174 -7.26151 22.5746 1.85214 -7.26167 -28.2692 5.46385 -0.470701 10.461 4.7516 -7.5331 120.092 75.5343 58.4939 7.53003 -26.7743 -7.80986 -167.277 84.4999 48.8109 133.073 -21.6672 32.2724 8.10463e-006 -8.92771 2.41336e-005 -145.034 12.9452 0.358891 1.14966e-006 20.2598 1.68988e-006 2.95153 -0.0127145 -0.493516 -72.0648 39.0385 39.3397 33.3638 2.10362 14.835 0.588947 0.308273 6.35287 -99.6409 81.413 100.35 -0.0181409 2.77866e-005 -0.117315 -0.124139 0.00241113 -0.799296 -79.8382 79.5773 80.5374 -0.000225772 -0.000220915 2.21964e-005 -0.00095622 0.000122905 -2.73181e-005 -66.7416 80.4058 67.2171 -0.000437128 1.59534e-005 -2.73189e-005 -0.000136597 -0.000109281 -5.46392e-005 -6.42159 81.2158 8.01779 -0.000218562 1.69097e-005 0.000212141 0.000901591 -0.0001848 -0.000218565 -59.9282 75.5373 58.5147 3.4581 24.2997 6.35019 -167.277 84.4999 48.8109 127.982 -10.6881 14.8255 3.28702e-006 5.63162 3.1878e-005 -136.935 1.2988 0.416048 -2.17236e-006 2.56941 8.12915e-007 -0.0525891 0.00247543 -5.38853 -72.0648 39.0385 39.3397 33.3638 2.10361 14.835 0.588946 0.308273 6.35287 -99.6409 81.413 100.35 -0.0181409 3.00592e-005 -0.117315 -0.124139 0.00241111 -0.799296 -79.8382 79.5773 80.5374 -0.000260642 -0.000218585 2.35728e-005 -0.000956221 0.000122971 -2.73175e-005 -66.7416 80.4058 67.2171 -0.000437128 1.48624e-005 -2.73179e-005 -0.000136599 -0.000109309 -5.46377e-005 -6.42159 81.2158 8.01779 -0.000218561 1.95591e-005 0.000212302 0.00090159 -0.000191272 -0.000218559 0.00081454 0.56661 89.91 -25.4679 -3.70947 -18.9405 -1.21381e-006 3.60212 -4.3294e-008 39.6752 6.39361 -1.03968 2.11497e-007 9.51752 2.01147e-007 -39.3958 2.06231 -1.65273 -39.1486 -10.2298 -0.10578 -180 -0.566576 -90.09 -21.0009 7.26017 -19.3514 3.2683e-006 21.3497 -2.15743e-007 62.923 -25.9281 -0.00819536 1.7237e-006 -39.0008 1.30974e-006 -19.8335 -8.21806 12.0138 -47.1452 -23.4541 -3.63567 
